<svg width="684" height="339" viewBox="0 0 684 339" fill="none" xmlns="http://www.w3.org/2000/svg">
<path fill-rule="evenodd" clip-rule="evenodd" d="M49.4987 68.0976C46.304 80.7334 55.8552 93 68.8886 93H257.205C266.362 93 274.35 86.7805 276.594 77.9023L289.994 24.9024C293.189 12.2666 283.638 0 270.605 0H82.2885C73.131 0 65.1433 6.21952 62.8987 15.0977L49.4987 68.0976Z" fill="#71B1E7"/>
<path fill-rule="evenodd" clip-rule="evenodd" d="M184.686 126.902C187.881 114.267 178.33 102 165.296 102H55.91C46.7525 102 38.7648 108.22 36.5201 117.098L23.1202 170.098C19.9255 182.733 29.4766 195 42.51 195H151.896C161.054 195 169.042 188.78 171.286 179.902L184.686 126.902ZM246.38 194.986C246.378 194.993 246.383 195 246.39 195V195C246.395 195 246.4 194.997 246.401 194.992L269.908 102.014C269.91 102.007 269.905 102 269.898 102V102C269.893 102 269.889 102.003 269.887 102.008L246.38 194.986Z" fill="#5179C5"/>
<path fill-rule="evenodd" clip-rule="evenodd" d="M80.4516 228.902C83.6463 216.267 74.0952 204 61.0618 204H33.41C24.2525 204 16.2648 210.22 14.0201 219.098L0.620162 272.098C-2.57454 284.733 6.97663 297 20.01 297H47.6618C56.8193 297 64.807 290.78 67.0517 281.902L80.4516 228.902Z" fill="#3F5AB3"/>
<path d="M294.832 314C288.485 314 283.259 312.6 279.152 309.8C275.232 307 273.272 303.92 273.272 300.56V193.88C273.272 189.96 275.232 186.787 279.152 184.36C283.259 181.933 288.485 180.72 294.832 180.72C300.059 180.72 304.539 181.933 308.272 184.36C312.005 186.787 313.872 189.96 313.872 193.88V200.32C316.485 194.907 321.059 190.053 327.592 185.76C334.125 181.28 342.059 179.04 351.392 179.04C359.979 179.04 367.819 181.747 374.912 187.16C382.192 192.387 387.979 199.48 392.272 208.44C396.752 217.213 398.992 227.013 398.992 237.84V300.56C398.992 305.04 396.659 308.4 391.992 310.64C387.512 312.88 382.565 314 377.152 314C372.112 314 367.259 312.88 362.592 310.64C357.925 308.4 355.592 305.04 355.592 300.56V237.84C355.592 234.293 354.659 230.933 352.792 227.76C351.112 224.587 348.685 221.973 345.512 219.92C342.525 217.867 339.165 216.84 335.432 216.84C332.445 216.84 329.459 217.68 326.472 219.36C323.672 221.04 321.339 223.467 319.472 226.64C317.605 229.627 316.672 233.36 316.672 237.84V300.56C316.672 303.92 314.525 307 310.232 309.8C305.939 312.6 300.805 314 294.832 314ZM499.337 316.8C496.35 316.8 492.617 315.773 488.137 313.72C483.844 311.48 479.924 308.68 476.377 305.32C473.017 301.96 471.337 298.6 471.337 295.24C471.337 292.813 472.177 290.387 473.857 287.96L505.497 245.96L476.937 207.88C476.377 207.133 475.724 206.107 474.977 204.8C474.417 203.493 474.137 202.187 474.137 200.88C474.137 197.52 475.817 194.16 479.177 190.8C482.537 187.44 486.457 184.64 490.937 182.4C495.604 180.16 499.804 179.04 503.537 179.04C504.47 179.04 505.87 179.32 507.737 179.88C509.79 180.253 511.47 181.467 512.777 183.52L535.177 220.2L557.857 183.8C558.977 181.933 560.47 180.72 562.337 180.16C564.39 179.413 566.164 179.04 567.657 179.04C571.017 179.04 574.937 180.16 579.417 182.4C584.084 184.64 588.097 187.44 591.457 190.8C594.817 194.16 596.497 197.52 596.497 200.88C596.497 202.933 595.564 205.267 593.697 207.88L564.857 246.24L596.777 287.96C597.337 288.707 597.897 289.733 598.457 291.04C599.017 292.347 599.297 293.747 599.297 295.24C599.297 298.227 597.71 301.4 594.537 304.76C591.364 308.12 587.537 311.013 583.057 313.44C578.764 315.68 574.657 316.8 570.737 316.8C569.057 316.8 567.284 316.427 565.417 315.68C563.55 315.12 562.057 314 560.937 312.32L535.177 273.68L509.697 312.32C508.577 313.813 506.897 314.933 504.657 315.68C502.604 316.427 500.83 316.8 499.337 316.8Z" fill="white"/>
<rect x="200" y="183" width="45" height="128" rx="17" fill="white"/>
<rect x="417" y="183" width="45" height="128" rx="17" fill="white"/>
</svg>
