<?xml version="1.0" standalone="no"?>
<!DOCTYPE svg PUBLIC "-//W3C//DTD SVG 20010904//EN"
 "http://www.w3.org/TR/2001/REC-SVG-20010904/DTD/svg10.dtd">
<svg version="1.0" xmlns="http://www.w3.org/2000/svg"
 width="522.000000pt" height="522.000000pt" viewBox="0 0 522.000000 522.000000"
 preserveAspectRatio="xMidYMid meet">
<metadata>
Created by potrace 1.14, written by Peter Selinger 2001-2017
</metadata>
<g transform="translate(0.000000,522.000000) scale(0.100000,-0.100000)"
fill="#000000" stroke="none">
<path d="M1329 5210 c-93 -28 -117 -72 -183 -335 -30 -121 -75 -301 -101 -400
-25 -99 -47 -189 -50 -200 -2 -11 -27 -108 -55 -215 -29 -107 -54 -219 -57
-248 -9 -95 36 -172 122 -208 36 -15 188 -16 1887 -16 1675 1 1850 2 1880 17
91 44 94 50 218 541 61 241 134 527 161 634 28 107 52 209 53 225 7 86 -59
184 -138 204 -52 13 -3694 15 -3737 1z"/>
<path d="M857 3416 c-42 -15 -69 -37 -97 -77 -22 -31 -343 -1287 -343 -1341 1
-20 6 -52 13 -72 14 -44 88 -111 132 -120 17 -3 549 -6 1180 -6 1041 0 1152 1
1183 16 42 20 90 67 104 103 9 22 74 273 86 329 2 9 29 116 60 237 151 590
185 735 179 773 -11 70 -47 117 -116 153 -36 18 -74 19 -1190 19 -946 -1
-1160 -3 -1191 -14z"/>
<path d="M465 1629 c-35 -10 -89 -58 -109 -97 -12 -24 -32 -87 -41 -132 -2 -8
-26 -105 -54 -215 -29 -110 -54 -211 -57 -225 -2 -14 -8 -34 -11 -45 -4 -11
-8 -25 -9 -31 -1 -6 -39 -157 -84 -335 -90 -358 -93 -382 -43 -453 16 -22 48
-50 72 -63 l44 -23 442 0 c486 0 486 0 544 61 16 16 34 42 40 57 8 22 93 343
106 402 2 8 38 152 80 320 42 168 79 312 81 320 2 8 15 60 29 115 36 140 38
162 25 211 -13 46 -46 88 -95 119 -29 19 -52 20 -480 22 -248 1 -463 -3 -480
-8z"/>
</g>
</svg>
